<?xml version="1.0" encoding="utf-8"?>
<!-- Generator: Adobe Illustrator 27.0.1, SVG Export Plug-In . SVG Version: 6.00 Build 0)  -->
<svg version="1.1" id="Layer_1" xmlns="http://www.w3.org/2000/svg" xmlns:xlink="http://www.w3.org/1999/xlink" x="0px" y="0px"
	 viewBox="0 0 166.8 38.7" style="enable-background:new 0 0 166.8 38.7;" xml:space="preserve">
<style type="text/css">
	.st0{fill:#FFFFFF;}
</style>
<g>
	<path class="st0" d="M0,0h9.9l9.5,19.4L28.9,0h9.8L19.4,38.7L0,0z"/>
	<path class="st0" d="M45.1,8.3c-1.2,0-2.1-0.4-2.9-1.2c-0.8-0.8-1.2-1.8-1.2-2.9s0.4-2.1,1.2-2.9C42.9,0.4,43.9,0,45.1,0
		c1.2,0,2.1,0.4,2.9,1.2C48.8,2,49.2,3,49.2,4.2S48.8,6.3,48,7.1C47.2,7.9,46.2,8.3,45.1,8.3z M49.2,11.9v26.8h-8.3V11.9H49.2z"/>
	<path class="st0" d="M51.4,0h9.9l9.5,19.4L80.3,0h9.8L70.8,38.7L51.4,0z"/>
	<path class="st0" d="M98.7,27.2c2.2,2.2,4.8,3.2,7.8,3.2s5.7-1.1,7.8-3.2l0.1,0l5.9,5.9l0,0c-3.8,3.8-8.3,5.7-13.7,5.7
		c-5.4,0-9.9-1.9-13.7-5.7c-3.8-3.8-5.7-8.3-5.7-13.7s1.9-9.9,5.7-13.7c3.8-3.8,8.3-5.7,13.7-5.7c5.4,0,9.9,1.9,13.7,5.7
		c3.8,3.8,5.7,8.3,5.7,13.7c0,0.9-0.1,1.8-0.3,2.8h-2.5H95.8C96.2,24,97.2,25.7,98.7,27.2z M114.3,11.5c-2.2-2.2-4.8-3.2-7.8-3.2
		s-5.7,1.1-7.8,3.2c-0.7,0.7-1.3,1.5-1.8,2.3h19.2C115.6,13,115,12.2,114.3,11.5z"/>
	<path class="st0" d="M136.4,38.7h-8.3V19.4c0-5.4,1.9-9.9,5.7-13.7c3.8-3.8,8.3-5.7,13.7-5.7c5.4,0,9.9,1.9,13.7,5.7
		s5.7,8.3,5.7,13.7v19.4h-8.3V19.4c0-3-1.1-5.7-3.2-7.8s-4.8-3.2-7.8-3.2s-5.7,1.1-7.8,3.2s-3.2,4.8-3.2,7.8L136.4,38.7L136.4,38.7z
		"/>
</g>
</svg>
